<?xml version="1.0" standalone="no"?>
<!DOCTYPE svg PUBLIC "-//W3C//DTD SVG 20010904//EN"
 "http://www.w3.org/TR/2001/REC-SVG-20010904/DTD/svg10.dtd">
<svg version="1.0" xmlns="http://www.w3.org/2000/svg"
 width="250.000000pt" height="250.000000pt" viewBox="0 0 250.000000 250.000000"
 preserveAspectRatio="xMidYMid meet">
<metadata>
Created by potrace 1.14, written by Peter Selinger 2001-2017
</metadata>
<g transform="translate(0.000000,250.000000) scale(0.100000,-0.100000)"
fill="#000000" stroke="none">
<path d="M525 2489 c-248 -26 -418 -156 -488 -374 -31 -96 -37 -227 -37 -880
0 -693 4 -768 50 -887 45 -119 148 -226 273 -283 117 -54 159 -56 969 -53
l743 3 70 24 c184 61 306 189 362 378 16 52 18 132 21 768 3 741 -1 841 -38
951 -40 117 -133 226 -241 283 -77 42 -134 58 -251 70 -115 13 -1313 13 -1433
0z m1290 -393 c14 -21 15 -98 13 -667 -3 -595 -4 -647 -21 -684 -37 -82 -101
-126 -209 -145 -153 -27 -266 62 -256 201 8 115 75 169 258 209 52 11 101 27
110 35 13 13 15 62 18 315 3 315 0 340 -40 340 -12 0 -167 -29 -344 -65 -177
-36 -325 -65 -328 -65 -2 0 -12 -7 -20 -16 -14 -14 -16 -69 -16 -463 0 -509
-1 -520 -71 -589 -50 -51 -120 -76 -214 -76 -57 -1 -77 3 -108 23 -106 65
-126 204 -44 297 41 48 70 61 195 89 78 18 112 30 125 46 16 20 17 60 17 526
l0 504 23 23 c18 18 70 32 307 79 157 32 337 68 400 81 153 32 185 33 205 2z"/>
</g>
</svg>
